<?xml version="1.0" encoding="utf-8"?>
<!-- Generator: Adobe Illustrator 24.0.1, SVG Export Plug-In . SVG Version: 6.00 Build 0)  -->
<svg version="1.1" xmlns="http://www.w3.org/2000/svg" xmlns:xlink="http://www.w3.org/1999/xlink" x="0px" y="0px"
	 viewBox="0 0 1122.2 1124" style="enable-background:new 0 0 1122.2 1124;" xml:space="preserve">
<style type="text/css">
	.st0{display:none;}
	.st1{display:inline;opacity:0.135;}
	.st2{fill:#E6E0FF;}
	.st3{fill:#3B3E54;}
	.st4{fill:#4449A0;}
	.st5{fill:#A699E3;}
	.st6{opacity:0.49;}
	.st7{fill:#F2E500;}
	.st8{fill:#C8D400;}
	.st9{fill:#FFCC00;}
	.st10{fill:#F39200;}
	.st11{fill:#008BC5;}
	.st12{fill:#005CA9;}
	.st13{fill:#B81178;}
	.st14{fill:#008ECF;}
	.st15{fill:#0BBBEF;}
	.st16{fill:#9B9B2F;}
	.st17{fill:#CC50A2;}
	.st18{fill:#8E557E;}
	.st19{fill:#008B32;}
	.st20{fill:#005091;}
	.st21{fill:#2A6A38;}
	.st22{fill:#76B82A;}
	.st23{fill:#8E196D;}
</style>
<g id="Capa_1" class="st0">
	<g id="Group_573" class="st1">
		<path id="Path_1195" class="st2" d="M953.9,163.1c14,14,28.1,28.1,35.1,42.1c21,28.1,42.1,56.1,63.1,91.2s35.1,77.2,49.1,119.2
			s21,84.2,21,126.3c0,63.1-7,126.2-28.1,189.4c-28.1,84.2-70.1,161.3-140.3,224.4c-63.1,63.1-140.3,112.2-224.4,140.3
			c-63.1,21-126.2,28.1-189.4,28.1c-42.1,0-84.2-7-126.2-21c-42.1-14-77.2-28.1-119.2-49.1c-28.1-14-63.1-35.1-91.2-63.1
			c-14-14-28.1-21-42.1-35.1s-28.1-28.1-42.1-49.1c-21-28.1-42.1-56.1-56.1-91.2c-21-42.1-35.1-77.2-49.1-119.2S0,605,0,562.9
			c0-70.1,7-133.3,35.1-196.4c28.1-70.1,70.1-140.3,126.2-203.4C217.4,107,287.6,64.9,364.7,36.9C427.8,15.8,498,1.8,561.1,1.8
			c42.1,0,91.2,7,133.3,14s84.2,28.1,119.2,49.1c28.1,14,63.1,35.1,91.2,56.1C925.8,135.1,939.9,149.1,953.9,163.1L953.9,163.1z"/>
		<path id="Path_1196" class="st3" d="M561.1,1.8L0,562.9c0-70.1,7-133.3,35.1-196.4L364.7,36.9C427.8,8.8,498-5.2,561.1,1.8z"/>
		<path id="Path_1197" class="st4" d="M813.6,57.9L63.1,815.4c-21-42.1-35.1-77.2-49.1-119.2L694.4,15.8
			C736.5,22.8,778.5,43.9,813.6,57.9L813.6,57.9z"/>
		<path id="Path_1198" class="st5" d="M953.9,163.1c14,14,28.1,28.1,35.1,42.1L203.4,990.7c-14-14-28.1-21-42.1-35.1
			s-28.1-28.1-42.1-49.1L904.8,121C925.8,135.1,939.9,149.1,953.9,163.1z"/>
		<path id="Path_1199" class="st5" d="M1052.1,289.4c21,35.1,35.1,77.2,49.1,119.2L413.8,1096c-42.1-14-77.2-28.1-119.2-49.1
			L1052.1,289.4z"/>
		<path id="Path_1200" class="st5" d="M1115.2,534.8c0,63.1-7,126.2-28.1,189.4l-357.7,357.7c-63.1,21-126.2,28.1-189.4,28.1
			L1115.2,534.8z"/>
	</g>
</g>
<g id="Capa_2">
	<g class="st6">
		<polygon class="st7" points="224.5,680.1 180.6,860.8 0,817 43.8,636.3 		"/>
		<polygon class="st8" points="268.3,499.5 224.5,680.1 43.8,636.4 87.6,455.7 		"/>
		<polygon class="st9" points="180.8,860.9 224.6,680.1 405.3,724 361.4,904.7 		"/>
		<polygon class="st10" points="586.1,767.8 542.4,948.5 361.7,904.7 405.5,724 		"/>
		<polygon class="st11" points="717.5,225.7 761.3,45.1 942,88.9 898.2,269.6 		"/>
		<polygon class="st12" points="673.7,406.4 717.5,225.7 898.2,269.5 854.4,450.2 		"/>
		<polygon class="st13" points="542.4,948.5 586.1,767.8 766.9,811.6 723.1,992.3 		"/>
		<polygon class="st14" points="1079,313.4 1035.2,494 854.6,450.2 898.3,269.5 		"/>
		<polygon class="st15" points="1122.8,132.7 1079,313.4 898.3,269.6 942.1,88.9 		"/>
		<polygon class="st16" points="449.1,543.1 405.3,723.8 224.6,680.1 268.4,499.3 		"/>
		<polygon class="st17" points="586,767.8 629.8,587.1 810.5,630.9 766.7,811.6 		"/>
		<polygon class="st18" points="766.1,810.3 809.9,629.5 990.6,673.4 946.8,854.1 		"/>
		<polygon class="st19" points="493,362.8 449.2,543.4 268.5,499.7 312.4,318.9 		"/>
		<polygon class="st20" points="761,44.9 717.3,225.6 536.6,181.8 		"/>
		<polygon class="st21" points="536.3,182 492.5,362.7 311.8,318.9 		"/>
		<polygon class="st22" points="311.9,318.8 268.1,499.5 87.4,455.7 		"/>
		<polygon class="st23" points="722.4,991 766.1,810.2 946.8,854.1 903,1034.8 		"/>
	</g>
</g>
</svg>
