<?xml version="1.0" encoding="utf-8"?>
<!-- Generator: Adobe Illustrator 24.0.1, SVG Export Plug-In . SVG Version: 6.00 Build 0)  -->
<svg version="1.1" xmlns="http://www.w3.org/2000/svg" xmlns:xlink="http://www.w3.org/1999/xlink" x="0px" y="0px"
	 viewBox="0 0 306.6 306.1" style="enable-background:new 0 0 306.6 306.1;" xml:space="preserve">
<style type="text/css">
	.st0{display:none;}
	.st1{display:inline;}
	.st2{fill:#FFFFFF;}
	.st3{fill:#3B3E54;}
	.st4{display:inline;fill:#3B3E54;}
	.st5{fill:#CECECE;}
	.st6{fill:#F1CF00;}
	.st7{fill:#A6AEA8;}
	.st8{fill:url(#SVGID_1_);}
	.st9{fill:#1497BF;}
	.st10{fill:#808080;}
	.st11{fill:url(#SVGID_2_);}
	.st12{fill:#E18B00;}
	.st13{fill:url(#SVGID_3_);}
	.st14{fill:#0E6DA1;}
	.st15{fill:url(#SVGID_4_);}
	.st16{fill:#004D77;}
	.st17{fill:url(#SVGID_5_);}
	.st18{fill:#F1F1F1;}
	.st19{fill:url(#SVGID_6_);}
	.st20{fill:url(#SVGID_7_);}
	.st21{fill:url(#SVGID_8_);}
	.st22{fill:url(#SVGID_9_);}
	.st23{fill:#6D6D6D;}
	.st24{fill:url(#SVGID_10_);}
	.st25{fill:url(#SVGID_11_);}
	.st26{fill:#E9E9E9;}
	.st27{fill:url(#SVGID_12_);}
	.st28{fill:url(#SVGID_13_);}
	.st29{fill:#D4BA92;}
	.st30{fill:url(#SVGID_14_);}
	.st31{fill:#C1CCD1;}
	.st32{fill:#79A2B1;}
	.st33{fill:#D6D6D6;}
	.st34{fill:#003B7E;}
	.st35{fill:#0071A9;}
	.st36{fill:#29BCF2;}
	.st37{fill:#457EEA;}
	.st38{fill:#949494;}
	.st39{fill:#E1E1E1;}
	.st40{fill:#9C1100;}
	.st41{fill:#B61100;}
	.st42{fill:#FF1B0A;}
	.st43{fill:#78EA45;}
	.st44{fill:#F0F0F0;}
	.st45{fill:#A9C4CD;}
	.st46{fill:#D45C00;}
	.st47{fill:#E69100;}
	.st48{fill:#F2BF29;}
	.st49{fill:#F5CC63;}
	.st50{fill:url(#SVGID_15_);}
	.st51{fill:#A9A9A9;}
	.st52{display:inline;fill:#FFFFFF;}
	.st53{fill:#F2E500;}
	.st54{fill:#C8D400;}
	.st55{fill:#FFCC00;}
	.st56{fill:#F39200;}
	.st57{fill:#008BC5;}
	.st58{fill:#005CA9;}
	.st59{fill:#B81178;}
	.st60{fill:#008ECF;}
	.st61{fill:#0BBBEF;}
	.st62{fill:#9B9B2F;}
	.st63{fill:#CC50A2;}
	.st64{fill:#8E557E;}
	.st65{fill:#008B32;}
	.st66{fill:#005091;}
	.st67{fill:#2A6A38;}
	.st68{fill:#76B82A;}
	.st69{fill:#8E196D;}
</style>
<g id="Capa_3" class="st0">
	<g id="Group_561" transform="translate(7.119 41.141)" class="st1">
		<path id="Path_1183" class="st2" d="M98.2,104.4v1c0,0.7-0.1,1.3-0.4,1.9c-0.2,0.7-0.5,1.5-0.9,2.2c-0.4,0.7-0.9,1.3-1.4,1.9
			c-0.8,0.9-1.8,1.6-2.8,2.1c-1.4,0.8-3,1.2-4.6,1.1c-1.6,0-3.2-0.4-4.6-1.1c-1.1-0.5-2-1.3-2.8-2.2c-0.5-0.6-1-1.2-1.4-1.9
			c-0.4-0.7-0.7-1.4-0.9-2.2l-0.4-1.9v-2.2l0.4-1.9c0.2-0.8,0.6-1.5,1-2.2c0.4-0.7,0.9-1.4,1.5-1.9c0.8-0.8,1.8-1.5,2.9-2
			c1.3-0.6,2.7-0.9,4.2-0.9c1.4,0,2.9,0.3,4.2,0.9c1.1,0.5,2.2,1.3,3,2.2c0.6,0.5,1.1,1.2,1.5,1.9c0.4,0.7,0.8,1.4,1,2.2
			c0.2,0.6,0.4,1.2,0.4,1.9C98.2,103.7,98.2,104,98.2,104.4z"/>
		<path id="Path_1184" class="st3" d="M95.3,97.4H81c0.9-0.9,1.9-1.6,3-2.2h8.3C93.5,95.8,94.5,96.5,95.3,97.4z"/>
		<path id="Path_1185" class="st3" d="M97.8,101.3H78.6c0.2-0.8,0.6-1.5,1-2.2h17.3C97.2,99.9,97.6,100.6,97.8,101.3z"/>
		<path id="Path_1186" class="st3" d="M98.2,104.4v1H78.1v-2.2h20C98.2,103.6,98.2,104,98.2,104.4z"/>
		<path id="Path_1187" class="st3" d="M97.8,107.3c-0.2,0.7-0.5,1.5-0.9,2.2H79.4c-0.4-0.7-0.7-1.4-0.9-2.2H97.8z"/>
		<path id="Path_1188" class="st3" d="M95.6,111.3c-0.8,0.9-1.8,1.6-2.8,2.2h-9.2c-1.1-0.5-2-1.3-2.8-2.2H95.6z"/>
	</g>
	<g id="Group_562" transform="translate(275.979 268.072)" class="st1">
		<path id="Path_1189" class="st2" d="M28.7,11.1c0.2,0.5,0.5,1.2,0.7,1.7c0.4,1.1,0.7,2.3,0.9,3.5c0.2,1.4,0.3,2.8,0.2,4.2
			c-0.2,1.4-0.5,2.9-0.9,4.2c-0.6,2.1-1.7,4-3.1,5.7c-1.7,2.4-4.1,4.3-6.8,5.4C17,37.2,14,37.8,11,37.5c-2.2,0-4.4-0.5-6.4-1.4
			C3.2,35.6,2,34.9,0.8,34c-1.1-0.8-2.2-1.8-3.1-2.8l-2.1-2.8c-0.3-0.6-0.6-1.1-0.9-1.7C-5.5,26-5.7,25.4-6,24.8
			c-0.5-1.1-0.7-2.3-0.7-3.5c-0.2-1.4-0.2-2.8,0-4.2c0.2-1.5,0.5-3,0.9-4.5c0.7-2.2,1.8-4.2,3.3-5.9c1.7-2.1,3.9-3.9,6.4-5
			C6.4,0.5,9,0,11.7,0c2.3,0,4.5,0.4,6.6,1.2c1.5,0.5,2.8,1.2,4,2.1C23.6,4,24.7,5,25.6,6.1C26.4,7,27.1,8,27.7,9
			C28,9.7,28.3,10.4,28.7,11.1z"/>
		<path id="Path_1190" class="st3" d="M18.3,1.7L-6,13c0.7-2.2,1.8-4.2,3.3-5.9l14.2-6.6C13.8,0.4,16.1,0.8,18.3,1.7z"/>
		<path id="Path_1191" class="st3" d="M25.6,6.4L-6.9,21.7c-0.2-1.4-0.2-2.8,0-4.2L22.3,3.8C23.5,4.6,24.6,5.4,25.6,6.4z"/>
		<path id="Path_1192" class="st3" d="M28.7,11.1c0.2,0.5,0.5,1.2,0.7,1.7l-34,15.8c-0.3-0.6-0.6-1.1-0.9-1.7
			C-5.7,26.3-6,25.6-6.2,25L27.5,9.2C27.9,9.8,28.3,10.4,28.7,11.1L28.7,11.1z"/>
		<path id="Path_1193" class="st3" d="M30.3,16.3c0.2,1.4,0.3,2.8,0.2,4.2L0.8,34.5c-1.1-0.8-2.2-1.8-3.1-2.8L30.3,16.3z"/>
		<path id="Path_1194" class="st3" d="M29.6,25c-0.6,2.1-1.7,4-3.1,5.7L11,38c-2.2,0-4.4-0.5-6.4-1.4L29.6,25z"/>
	</g>
	<g id="Group_563" transform="translate(90.269 68.171)" class="st1">
		<path id="Path_1195" class="st2" d="M101.8,111.9c0.3,0.3,0.6,0.6,0.9,1c0.6,0.7,1.1,1.5,1.5,2.2c0.5,0.9,0.9,1.9,1.2,2.9
			c0.3,1,0.5,2,0.5,3.1c0,1.6-0.2,3.1-0.7,4.6c-0.6,2.1-1.8,4-3.4,5.5c-1.5,1.5-3.4,2.7-5.5,3.4c-1.5,0.5-3.1,0.7-4.6,0.7
			c-1,0-2.1-0.2-3.1-0.5c-1-0.3-2-0.7-2.9-1.2c-0.8-0.4-1.6-0.9-2.2-1.5c-0.3-0.3-0.7-0.5-1-0.9c-0.4-0.4-0.7-0.8-1-1.2
			c-0.6-0.7-1-1.4-1.4-2.2c-0.5-0.9-0.9-1.9-1.2-2.9c-0.3-1.1-0.4-2.2-0.3-3.2c-0.1-1.6,0.2-3.3,0.9-4.8c0.7-1.8,1.8-3.5,3.1-5
			c1.4-1.4,3.1-2.4,5-3.1c1.5-0.5,3.2-0.8,4.8-0.9c1.1,0,2.2,0.1,3.2,0.3c1,0.2,2,0.6,2.9,1.2c0.8,0.4,1.5,0.9,2.2,1.4
			C101,111.2,101.4,111.5,101.8,111.9z"/>
		<path id="Path_1196" class="st3" d="M92.2,108l-13.7,13.7c-0.1-1.6,0.2-3.3,0.9-4.8l8-8C88.9,108.2,90.6,107.9,92.2,108z"/>
		<path id="Path_1197" class="st3" d="M98.3,109.4l-18.3,18.5c-0.5-0.9-0.9-1.9-1.2-2.9l16.6-16.6C96.4,108.6,97.4,108.9,98.3,109.4
			z"/>
		<path id="Path_1198" class="st3" d="M101.8,111.9c0.3,0.3,0.6,0.6,0.9,1l-19.1,19.1c-0.3-0.3-0.7-0.5-1-0.9
			c-0.4-0.4-0.7-0.8-1-1.2l19.1-19.1C101,111.2,101.4,111.6,101.8,111.9z"/>
		<path id="Path_1199" class="st3" d="M104.2,115c0.5,0.9,0.9,1.9,1.2,2.9l-16.8,16.8c-1-0.3-2-0.7-2.9-1.2L104.2,115z"/>
		<path id="Path_1200" class="st3" d="M105.7,121c0,1.6-0.2,3.1-0.7,4.6l-8.7,8.7c-1.5,0.5-3.1,0.7-4.6,0.7L105.7,121z"/>
	</g>
	<g id="Group_564" transform="translate(117.453 147.884)" class="st1">
		<path id="Path_1201" class="st2" d="M101.8,111.9c0.3,0.3,0.6,0.6,0.9,1c0.6,0.7,1.1,1.5,1.5,2.2c0.5,0.9,0.9,1.9,1.2,2.9
			c0.3,1,0.5,2,0.5,3.1c0,1.6-0.2,3.1-0.7,4.6c-0.6,2.1-1.8,4-3.4,5.5c-1.5,1.5-3.4,2.7-5.5,3.4c-1.5,0.5-3.1,0.7-4.6,0.7
			c-1,0-2.1-0.2-3.1-0.5c-1-0.3-2-0.7-2.9-1.2c-0.8-0.4-1.6-0.9-2.2-1.5c-0.3-0.3-0.7-0.5-1-0.9c-0.4-0.4-0.7-0.8-1-1.2
			c-0.6-0.7-1-1.4-1.4-2.2c-0.5-0.9-0.9-1.9-1.2-2.9c-0.3-1.1-0.4-2.2-0.3-3.2c-0.1-1.6,0.2-3.3,0.9-4.8c0.7-1.8,1.8-3.5,3.1-5
			c1.4-1.4,3.1-2.4,5-3.1c1.5-0.5,3.2-0.8,4.8-0.9c1.1,0,2.2,0.1,3.2,0.3c1,0.2,2,0.6,2.9,1.2c0.8,0.4,1.5,0.9,2.2,1.4
			C101,111.2,101.4,111.5,101.8,111.9L101.8,111.9z"/>
		<path id="Path_1202" class="st3" d="M92.4,108l-13.7,13.7c-0.1-1.6,0.2-3.3,0.9-4.8l8-8C89.1,108.2,90.7,107.9,92.4,108z"/>
		<path id="Path_1203" class="st3" d="M98.5,109.5l-18.5,18.3c-0.5-0.9-0.9-1.9-1.2-2.9l16.6-16.6C96.5,108.6,97.5,109,98.5,109.5z"
			/>
		<path id="Path_1204" class="st3" d="M101.8,111.9c0.3,0.3,0.6,0.6,0.9,1l-19.1,19.1c-0.3-0.3-0.7-0.5-1-0.9
			c-0.4-0.4-0.7-0.8-1-1.2l19.1-19.1C101,111.2,101.4,111.5,101.8,111.9z"/>
		<path id="Path_1205" class="st3" d="M104.2,115c0.5,0.9,0.9,1.9,1.2,2.9l-16.8,16.8c-1-0.3-2-0.7-2.9-1.2L104.2,115z"/>
		<path id="Path_1206" class="st3" d="M105.7,121.1c0,1.6-0.2,3.1-0.7,4.6l-8.7,8.7c-1.5,0.5-3.1,0.7-4.6,0.7L105.7,121.1z"/>
	</g>
	<path id="Path_1219" class="st4" d="M239.9,175.1l1.5,6.3l6.3,1.5l-6.3,1.4l-1.5,6.3l-1.4-6.3l-6.3-1.4l6.3-1.5L239.9,175.1z"/>
	<path id="Path_1220" class="st4" d="M231.4,153.9l0.9,3.9l3.8,0.9l-3.8,0.9l-0.9,3.8l-0.9-3.8l-3.8-0.9l3.8-0.9L231.4,153.9z"/>
	<path id="Path_1221" class="st4" d="M278.2,208.6l0.9,3.8l3.8,0.9l-3.8,0.9l-0.9,3.8l-0.9-3.8l-3.8-0.9l3.8-0.9L278.2,208.6z"/>
	<path id="Path_1222" class="st4" d="M101.8,259.3l1.5,6.3l6.3,1.4l-6.3,1.4l-1.5,6.3l-1.4-6.3l-6.3-1.4l6.3-1.4L101.8,259.3z"/>
</g>
<g id="Capa_2">
	<g>
		<g>
			<g>
				<path class="st5" d="M206.8,101.5c2.6,2.2,3.7,4.6,2.4,5.3l-33.9,19.7c-3.1-2.7-6.3-5.3-9.6-7.9l34.1-19.8
					C201.1,98.1,204.2,99.3,206.8,101.5z"/>
				<path class="st5" d="M128.4,150.4l29.1,27.6L103,146.5l-20.5,11.8l43.6,25l14.8,8.3l6.7-4l2,1.2c1.3,0.6,2.5,1.1,3.6,1.1
					c0.9,0,1.7-0.2,2.7-0.9l7-4.5c0.9-0.6,1.5-1.6,1.6-2.7c0.1-1.1-0.3-2.2-1.1-3L132,149.1l15-9.2l-1.8-2.9L129,147l-44.2-10.3
					l-11.4,5.4l1.5,3.1l10.3-4.9L128.4,150.4z M160,180.3l1.1,1l0,0.4l-7,4.5c-0.6,0.4-0.9,0.6-2.9-0.3l-0.3-0.2L160,180.3z"/>
				<g>
					<path class="st6" d="M13.5,169.2c6.1-4,15,1.4,21.3-2.3c3.6-2.1,5.1-6.6,8.5-9c5.8-4.2,14.9-0.9,20.3-5.5
						c1.7-1.5,2.9-3.6,5-4.4c1.7-0.6,3.6-0.1,5.4,0.5c5.5,1.7,10.9,3.9,16.1,6.3c9.5,4.4,18.3,10,26.8,16c6.1,4.3,17.8,11,17.6,19.8
						c-0.1,4.6-6.4,9.5-10.3,11.9c-2.7,1.6-5.9,2.2-9,3.3c-3.4,1.2-6.7,3-9.5,5.4c-1.8,1.5-3.5,3.3-5.6,4.5
						c-5.9,3.3-12.9,2.3-18.9,5.1c-4.4,2.1-6.6,6.2-10.6,8.7c-0.4-1-0.2-2.1-0.2-3.1c0.1-1.1-0.2-2.3-1.2-2.7c-0.8-0.3-1.7,0-2.6,0
						c-3.1,0.1-4.9-3.9-7.9-4.8c-1.5-0.5-3.3,0-4.4,1.1c-1.8-1.3-1.4-4-2.3-5.9c-0.7-1.5-2.3-2.5-3.9-2.9c-1.6-0.4-3.3-0.3-5-0.2
						c-0.1-1.1-0.1-2.1-0.2-3.2c-3.8-0.7-7.6-0.7-11.4-0.1c-0.5-1.5-0.2-3.3,0.6-4.6c-0.9-1.6-3-1.6-4.8-1.7
						c-1.4-0.1-2.7-0.6-3.9-1.1c-0.7-0.3-2.8-0.5-3.2-0.8c-1.5-1-1-6.6-1.5-8.7c0-0.1-7.8,0.6-8.4,0.6c-0.5,0-1.1-0.2-1.2-0.7
						c-0.1-0.3,0.1-0.6,0.3-0.8c1.2-1.9,2.4-3.7,3.6-5.6c0.1-0.2,0.3-0.5,0.2-0.8c-0.1-0.3-0.3-0.4-0.6-0.5c-0.7-0.3-1.6,0-2.4,0.1
						c-0.8,0.1-1.7-0.1-2-0.9c-0.1-0.2-0.1-0.5-0.3-0.7c-0.2-0.2-0.6-0.2-0.9-0.2c-3,0.4-5.9,1.3-8.6,2.6c2.3-1.1,5.1-5.2,7-7.1
						C8.4,174.4,10.7,171.1,13.5,169.2z"/>
					<path class="st7" d="M66.3,141.1c3.3-5.8,8.7-8.9,12-7.1l70.6,41.5c-3.4,5.2-6.7,10.5-9.8,15.9c-1.5,2.6-4.9,3.6-7.5,2
						L66.2,155C62.9,153.1,63,146.9,66.3,141.1z"/>
					<g>
						
							<linearGradient id="SVGID_1_" gradientUnits="userSpaceOnUse" x1="161.2541" y1="95.6719" x2="177.7917" y2="95.6719" gradientTransform="matrix(-0.5 -0.866 0.866 -0.5 174.1858 313.6918)">
							<stop  offset="1.554360e-02" style="stop-color:#00577B"/>
							<stop  offset="2.072480e-02" style="stop-color:#00688A"/>
							<stop  offset="0.377" style="stop-color:#00688A"/>
							<stop  offset="0.3789" style="stop-color:#0076A1"/>
							<stop  offset="0.6588" style="stop-color:#0076A1"/>
							<stop  offset="0.661" style="stop-color:#30A3C9"/>
							<stop  offset="0.8989" style="stop-color:#30A3C9"/>
							<stop  offset="0.9041" style="stop-color:#007FA9"/>
						</linearGradient>
						<path class="st8" d="M202.4,101.7c-2.1-3.7-5.5-5.7-7.6-4.5l-56.2,33.1c2.8,4.3,5.5,8.7,8,13.2l55.9-32.9
							C204.6,109.3,204.5,105.3,202.4,101.7z"/>
						<path class="st9" d="M146.6,143.4c2.1-1.2,2.1-5.2-0.1-8.9c-2.1-3.7-5.6-5.7-7.7-4.5c-2.1,1.2-2.1,5.2,0.1,8.9
							C141,142.6,144.5,144.6,146.6,143.4z"/>
					</g>
					<g>
						<polygon class="st10" points="125.9,148.1 126.6,144.8 81.8,134.4 70.4,139.8 71.8,142.9 82.2,137.9 						"/>
					</g>
					<g>
						
							<linearGradient id="SVGID_2_" gradientUnits="userSpaceOnUse" x1="263.8725" y1="-169.7459" x2="289.5985" y2="-169.7459" gradientTransform="matrix(0.5 -0.866 -0.866 -0.5 -181.5753 313.6918)">
							<stop  offset="0.1613" style="stop-color:#E4A300"/>
							<stop  offset="0.1633" style="stop-color:#FBC800"/>
							<stop  offset="0.5593" style="stop-color:#FBC800"/>
							<stop  offset="0.5622" style="stop-color:#FFD600"/>
							<stop  offset="0.8728" style="stop-color:#FFD600"/>
							<stop  offset="0.8739" style="stop-color:#F9C600"/>
						</linearGradient>
						<path class="st11" d="M65.3,136.8c3.3-5.8,8.7-8.9,12-7.1l70.6,41.5c-4.4,6.7-8.6,13.6-12.6,20.7l-70.1-41.3
							C61.9,148.8,62,142.6,65.3,136.8z"/>
						<path class="st12" d="M135.4,192c-3.3-1.9-3.2-8.1,0.1-13.9c3.4-5.8,8.7-9,12-7.1c3.3,1.9,3.2,8.1-0.1,13.9
							C144,190.7,138.6,193.9,135.4,192z"/>
						
							<linearGradient id="SVGID_3_" gradientUnits="userSpaceOnUse" x1="-14.4499" y1="175.1027" x2="-7.4129" y2="187.291" gradientTransform="matrix(-1 0 0 1 129.9767 0)">
							<stop  offset="9.588220e-02" style="stop-color:#007EC7"/>
							<stop  offset="0.1011" style="stop-color:#3DB8FF"/>
							<stop  offset="0.339" style="stop-color:#3DB8FF"/>
							<stop  offset="0.3412" style="stop-color:#0076BF"/>
							<stop  offset="0.6211" style="stop-color:#0076BF"/>
							<stop  offset="0.623" style="stop-color:#006AA8"/>
							<stop  offset="0.9793" style="stop-color:#006AA8"/>
							<stop  offset="0.9845" style="stop-color:#005C99"/>
						</linearGradient>
						<path class="st13" d="M138.6,179.8c1.9-3.4,5-5.2,6.9-4.1l1.2,0.7c-2.6,3.9-5,7.9-7.3,12l-0.9-0.6
							C136.6,186.8,136.7,183.2,138.6,179.8z"/>
						<path class="st14" d="M139.5,188.5c-1.9-1.1-1.9-4.7,0.1-8.1c1.9-3.4,5.1-5.2,7-4.1c1.9,1.1,1.9,4.7-0.1,8.1
							C144.5,187.7,141.4,189.6,139.5,188.5z"/>
						<g>
							
								<linearGradient id="SVGID_4_" gradientUnits="userSpaceOnUse" x1="312.9549" y1="144.2051" x2="322.9593" y2="144.2051" gradientTransform="matrix(-0.5396 0.9161 0.8155 0.4282 197.9847 -169.9507)">
								<stop  offset="9.588220e-02" style="stop-color:#007EC7"/>
								<stop  offset="0.1011" style="stop-color:#3DB8FF"/>
								<stop  offset="0.339" style="stop-color:#3DB8FF"/>
								<stop  offset="0.3412" style="stop-color:#0076BF"/>
								<stop  offset="0.6211" style="stop-color:#0076BF"/>
								<stop  offset="0.623" style="stop-color:#006AA8"/>
								<stop  offset="0.9793" style="stop-color:#006AA8"/>
								<stop  offset="0.9845" style="stop-color:#005C99"/>
							</linearGradient>
							<path class="st15" d="M145.6,183.7c-1.4,2.4-3.6,3.9-4.8,3.3l-0.7-0.4c1.9-2.9,3.7-5.8,5.4-8.7l0.6,0.3
								C147.2,178.8,147,181.3,145.6,183.7z"/>
							<path class="st16" d="M145.4,177.8c1.2,0.6,1.1,3.2-0.4,5.6c-1.4,2.4-3.6,3.9-4.8,3.3c-1.2-0.6-1.1-3.2,0.4-5.6
								C142,178.6,144.1,177.1,145.4,177.8z"/>
						</g>
					</g>
					<g>
						<path class="st10" d="M150.2,187.6c0.9,0,1.7-0.2,2.7-0.9l7-4.5c0.9-0.6,1.5-1.6,1.7-2.7c0.1-1.1-0.3-2.2-1.1-3L129,146.8
							l15-9.2l-1.8-2.9l-18.8,11.5l34.6,32.8l0.9,1.8l-0.9-1.4l-7,4.5c-0.6,0.4-0.9,0.6-2.9-0.3l-4.6-2.9l-1.8,2.9l4.8,3
							C147.9,187.1,149,187.6,150.2,187.6z"/>
					</g>
					<path class="st10" d="M144,137.7c0.5-0.3,0.4-1.1,0-1.9c-0.5-0.8-1.2-1.3-1.7-1c-0.5,0.3-0.4,1.1,0,1.9
						C142.8,137.5,143.5,137.9,144,137.7z"/>
					<path class="st10" d="M141.7,183.5c-0.5-0.3-0.4-1.1,0-1.9s1.2-1.3,1.7-1c0.5,0.3,0.4,1.1,0,1.9
						C142.9,183.4,142.2,183.8,141.7,183.5z"/>
				</g>
			</g>
			<g>
				<path class="st5" d="M101.1,147.2l89.5,53.8l15.4-8.7l65.2-37.4l-97.4-58.3c-15.9-9.5-35.7-9.7-51.8-0.4l-20.6,11.9
					C86.5,116.7,86.3,138.3,101.1,147.2z"/>
			</g>
			<g>
				<g>
					<g>
						<linearGradient id="SVGID_5_" gradientUnits="userSpaceOnUse" x1="169.0616" y1="189.0234" x2="301.0495" y2="189.0234">
							<stop  offset="0.1613" style="stop-color:#B8B8B8"/>
							<stop  offset="0.1633" style="stop-color:#DBDBDB"/>
							<stop  offset="0.5593" style="stop-color:#DBDBDB"/>
							<stop  offset="0.5622" style="stop-color:#E8E8E8"/>
							<stop  offset="0.8728" style="stop-color:#E8E8E8"/>
							<stop  offset="0.8739" style="stop-color:#D9D9D9"/>
						</linearGradient>
						<path class="st17" d="M235,210.9c36.4,0,66-16.7,66-37.3l0.1-6.4c-43.8,2.6-87.8,3.5-131.9,2.9l0,3.5
							C169.1,194.2,198.6,210.9,235,210.9z"/>
						<path class="st18" d="M169.1,169.9c0,20.6,29.6,37.4,66.2,37.4c36.6,0,66.2-16.7,66.2-37.4c0-20.6-29.6-37.4-66.2-37.4
							C198.7,132.5,169.1,149.2,169.1,169.9z"/>
					</g>
					
						<linearGradient id="SVGID_6_" gradientUnits="userSpaceOnUse" x1="252.5842" y1="-48.8601" x2="382.6278" y2="-48.8601" gradientTransform="matrix(1 0 0 1 -80.2352 182.5042)">
						<stop  offset="0.1613" style="stop-color:#8C8C8C"/>
						<stop  offset="0.1633" style="stop-color:#AFAFAF"/>
						<stop  offset="0.5593" style="stop-color:#AFAFAF"/>
						<stop  offset="0.5622" style="stop-color:#BCBCBC"/>
						<stop  offset="0.8728" style="stop-color:#BCBCBC"/>
						<stop  offset="0.8739" style="stop-color:#ADADAD"/>
					</linearGradient>
					<path class="st19" d="M235.2,203.9c34.7,0,62.9-15.9,62.9-35.5l0.1-105c-41.7,2.5-83.7,3.3-125.8,2.8l0,102.3
						C172.3,188,200.5,203.9,235.2,203.9z"/>
					<linearGradient id="SVGID_7_" gradientUnits="userSpaceOnUse" x1="175.6566" y1="87.0765" x2="301.2747" y2="87.0765">
						<stop  offset="0.1613" style="stop-color:#666666"/>
						<stop  offset="0.1633" style="stop-color:#898989"/>
						<stop  offset="0.5593" style="stop-color:#898989"/>
						<stop  offset="0.5622" style="stop-color:#969696"/>
						<stop  offset="0.8728" style="stop-color:#969696"/>
						<stop  offset="0.8739" style="stop-color:#878787"/>
					</linearGradient>
					<path class="st20" d="M172.4,68.1l0,15.2c8.7,14.9,33.4,25.6,62.6,25.6c29.7,0,54.9-11.1,63.1-26.4l0-17.1
						C256.4,67.7,214.4,68.6,172.4,68.1z"/>
					<linearGradient id="SVGID_8_" gradientUnits="userSpaceOnUse" x1="172.3493" y1="137.6443" x2="302.3346" y2="137.6443">
						<stop  offset="0.1613" style="stop-color:#F7AA00"/>
						<stop  offset="0.1633" style="stop-color:#FFCE00"/>
						<stop  offset="0.5593" style="stop-color:#FFCE00"/>
						<stop  offset="0.5622" style="stop-color:#FFDB00"/>
						<stop  offset="0.8728" style="stop-color:#FFDB00"/>
						<stop  offset="0.8739" style="stop-color:#FFCC00"/>
					</linearGradient>
					<path class="st21" d="M298.1,82.9c0,19.6-28.1,35.5-62.9,35.5c-34.4,0-62.3-15.6-62.8-34.9l0,73.5c0,19.6,28.1,35.5,62.9,35.5
						c34.7,0,62.9-15.9,62.9-35.5V82.9z"/>
					<linearGradient id="SVGID_9_" gradientUnits="userSpaceOnUse" x1="172.3493" y1="139.1748" x2="302.3346" y2="139.1748">
						<stop  offset="0.1613" style="stop-color:#B05B00"/>
						<stop  offset="0.1633" style="stop-color:#C47D00"/>
						<stop  offset="0.5593" style="stop-color:#C47D00"/>
						<stop  offset="0.5622" style="stop-color:#CB8800"/>
						<stop  offset="0.8728" style="stop-color:#CB8800"/>
						<stop  offset="0.8739" style="stop-color:#C37B00"/>
					</linearGradient>
					<path class="st22" d="M298.1,84.4c0,19.6-28.1,35.5-62.9,35.5c-34.4,0-62.3-15.6-62.8-34.9l0,73.5c0,19.6,28.1,35.5,62.9,35.5
						c34.7,0,62.9-15.9,62.9-35.5V84.4z"/>
					<path class="st23" d="M172.4,65.9c0,19.7,28.2,35.6,63.1,35.6c34.8,0,63.1-16,63.1-35.6c0-19.7-28.2-35.6-63.1-35.6
						C200.6,30.3,172.4,46.2,172.4,65.9z"/>
					<g>
						<linearGradient id="SVGID_10_" gradientUnits="userSpaceOnUse" x1="169.0616" y1="84.5386" x2="301.0495" y2="84.5386">
							<stop  offset="0.1613" style="stop-color:#B8B8B8"/>
							<stop  offset="0.1633" style="stop-color:#DBDBDB"/>
							<stop  offset="0.5593" style="stop-color:#DBDBDB"/>
							<stop  offset="0.5622" style="stop-color:#E8E8E8"/>
							<stop  offset="0.8728" style="stop-color:#E8E8E8"/>
							<stop  offset="0.8739" style="stop-color:#D9D9D9"/>
						</linearGradient>
						<path class="st24" d="M235,106.4c36.4,0,66-16.7,66-37.3l0.1-6.4c-43.8,2.6-87.8,3.5-131.9,2.9l0,3.5
							C169.1,89.7,198.6,106.4,235,106.4z"/>
						<path class="st18" d="M169.1,65.4c0,20.6,29.6,37.4,66.2,37.4s66.2-16.7,66.2-37.4c0-20.6-29.6-37.4-66.2-37.4
							C198.7,28,169.1,44.7,169.1,65.4z"/>
					</g>
					<g>
						<linearGradient id="SVGID_11_" gradientUnits="userSpaceOnUse" x1="173.8637" y1="49.7417" x2="297.0641" y2="49.7417">
							<stop  offset="0.1261" style="stop-color:#D9D9D9"/>
							<stop  offset="0.1272" style="stop-color:#E8E8E8"/>
							<stop  offset="0.4378" style="stop-color:#E8E8E8"/>
							<stop  offset="0.4407" style="stop-color:#DBDBDB"/>
							<stop  offset="0.8367" style="stop-color:#DBDBDB"/>
							<stop  offset="0.8387" style="stop-color:#B8B8B8"/>
						</linearGradient>
						<path class="st25" d="M235.5,30.6c-34,0-61.6,14.6-61.6,32.6l-0.1,5.6c40.9-2.3,82-3,123.2-2.5l0-3.1
							C297.1,45.2,269.5,30.6,235.5,30.6z"/>
						<path class="st26" d="M297,66.5c0-18.1-27.7-32.7-61.8-32.7c-34.1,0-61.8,14.6-61.8,32.7c0,18.1,27.7,32.7,61.8,32.7
							C269.4,99.2,297,84.5,297,66.5z"/>
					</g>
				</g>
				<g>
					<linearGradient id="SVGID_12_" gradientUnits="userSpaceOnUse" x1="187.7467" y1="76.1887" x2="282.8487" y2="76.1887">
						<stop  offset="0.1613" style="stop-color:#B8B8B8"/>
						<stop  offset="0.1633" style="stop-color:#DBDBDB"/>
						<stop  offset="0.5593" style="stop-color:#DBDBDB"/>
						<stop  offset="0.5622" style="stop-color:#E8E8E8"/>
						<stop  offset="0.8728" style="stop-color:#E8E8E8"/>
						<stop  offset="0.8739" style="stop-color:#D9D9D9"/>
					</linearGradient>
					<path class="st27" d="M235.3,92.3c26.3,0,47.5-12.3,47.5-27.5l0-4.7c-31.5,1.9-63.3,2.6-95.1,2.1l0,2.6
						C187.7,80,209,92.3,235.3,92.3z"/>
					<path class="st18" d="M187.8,62c0,15.3,21.3,27.6,47.7,27.6c26.3,0,47.7-12.4,47.7-27.6c0-15.3-21.4-27.6-47.7-27.6
						C209.1,34.4,187.8,46.8,187.8,62z"/>
				</g>
				<g>
					<linearGradient id="SVGID_13_" gradientUnits="userSpaceOnUse" x1="190.9472" y1="61.3544" x2="279.948" y2="61.3544">
						<stop  offset="0.1613" style="stop-color:#383838"/>
						<stop  offset="0.1633" style="stop-color:#4F4F4F"/>
						<stop  offset="0.5593" style="stop-color:#4F4F4F"/>
						<stop  offset="0.5622" style="stop-color:#919191"/>
						<stop  offset="0.8728" style="stop-color:#919191"/>
						<stop  offset="0.8739" style="stop-color:#828282"/>
					</linearGradient>
					<path class="st28" d="M279.9,60.1l0,2.3v0.1c0,13.2-19.9,23.8-44.5,23.8c-24.6,0-44.5-10.7-44.5-23.8c0-1,0.2-2,0.4-3
						c0-0.2,0-0.4,0.1-0.6c1.1-12.5,20.5-22.6,44.2-22.6c24.1,0,43.6,10.2,44.3,23C279.9,59.6,279.9,59.9,279.9,60.1z"/>
				</g>
				<path class="st6" d="M279.9,60.1l0,2.3v0.1c0,13.2-19.9,23.8-44.5,23.8c-24.6,0-44.5-10.7-44.5-23.8c0-1,0.2-2,0.4-3
					c0-0.2,0-0.4,0.1-0.6c11.2-6,26.7-9.7,43.9-9.7c17.6,0,33.5,3.9,44.7,10.1C279.9,59.6,279.9,59.9,279.9,60.1z"/>
				<path class="st29" d="M279.2,66.7c0.1-0.3,0.2-0.6,0.2-0.8c0.1-0.4,0.2-0.8,0.3-1.2c0.1-0.5,0.1-1.1,0.2-1.7c0-0.2,0-0.3,0-0.5
					c0,0,0,0,0-0.1v-0.1v0h0l0-2.3c0-0.1,0-0.1,0-0.2c0-0.2,0-0.4,0-0.5c0-0.1,0-0.1,0-0.2c0-0.6-0.1-1.2-0.3-1.7
					c-0.1-0.5-0.2-0.9-0.4-1.4c-0.1-0.2-0.1-0.5-0.2-0.7c-0.2-0.5-0.4-1-0.6-1.4c0,0,0,0,0,0l0,0c-5.1-10.1-22.3-17.5-42.8-17.5
					c-23.8,0-43.1,10-44.2,22.6c0,0.2-0.1,0.4-0.1,0.6c-0.2,1-0.4,2-0.4,3c0,2.8,0.9,5.4,2.6,7.9c5.8-9.5,22.4-16.4,42.1-16.4
					c9.8,0,18.8,1.7,26.2,4.6l0,0c0,13.2-19.9,23.8-44.5,23.8c-2.4,0-4.8-0.1-7.1-0.3c7.2,2.7,15.9,4.2,25.2,4.2
					c20.7,0,38-7.6,43-17.8c0.1-0.1,0.1-0.3,0.2-0.4C278.9,67.6,279,67.2,279.2,66.7z"/>
				<linearGradient id="SVGID_14_" gradientUnits="userSpaceOnUse" x1="190.9453" y1="50.7677" x2="279.9543" y2="50.7677">
					<stop  offset="0.1261" style="stop-color:#D9D9D9"/>
					<stop  offset="0.1272" style="stop-color:#E8E8E8"/>
					<stop  offset="0.4378" style="stop-color:#E8E8E8"/>
					<stop  offset="0.4407" style="stop-color:#DBDBDB"/>
					<stop  offset="0.8367" style="stop-color:#DBDBDB"/>
					<stop  offset="0.8387" style="stop-color:#B8B8B8"/>
				</linearGradient>
				<path class="st30" d="M191.3,64.7c0.6-12.9,20.2-23.2,44.3-23.2c23.5,0,42.7,9.8,44.2,22.2c0-0.4,0.1-0.8,0.1-1.2
					c0,0,0-0.1,0-0.1c0,0,0,0,0,0l0-2.3c0-13.1-19.9-23.7-44.3-23.7c-24.1,0-43.7,10.3-44.3,23.2c-0.2,1-0.4,2-0.4,3
					c0,0.9,0.1,1.8,0.3,2.6C191.3,65,191.3,64.8,191.3,64.7z"/>
			</g>
			<g>
				<polygon class="st31" points="297.6,236.4 296,238.2 276.8,260.4 276,261.3 207.2,248.6 207,248.6 195,246.3 187.7,245 
					185.8,244.7 182.6,244.1 181,243.8 184.1,240.1 189.5,233.9 189.5,233.9 191.7,231.4 195.8,226.6 199.8,222 199.9,221.9 
					202.6,218.8 220.7,222.2 220.9,222.2 289.8,235 291.6,235.3 				"/>
				<polygon class="st31" points="293.3,221.4 288.2,246.9 188.3,244.6 194.9,219.2 				"/>
				<g>
					<polygon class="st32" points="286.5,262.8 257.9,279.3 181.4,235.4 181.4,234.3 210,218.8 286.5,261.7 					"/>
					<polygon class="st33" points="286.5,261.7 257.9,278.2 203.1,246.7 198.6,244.1 198.6,244.1 195,242.1 187.1,237.5 
						185.5,236.6 184.1,235.8 181.4,234.3 189.5,229.6 189.5,229.6 191,228.8 194.3,226.8 208.3,218.7 209.9,217.8 209.8,217.8 
						209.9,217.9 213.1,219.5 258.2,245.5 258.2,245.5 276.8,256.1 278.6,257.2 					"/>
					<g>
						<polygon class="st34" points="280,261.8 259.1,274.6 244.6,266.3 265.4,253.5 						"/>
						<polygon class="st35" points="261,253.5 242,265.1 227.4,256.8 246.4,245.2 						"/>
						<polygon class="st36" points="244.2,243.6 225.3,255.2 210.7,246.9 229.6,235.3 						"/>
						<polygon class="st37" points="227.8,234.1 208.9,245.7 194.3,237.5 213.2,225.9 						"/>
					</g>
					<polygon class="st38" points="276.8,256.1 278.6,257.2 276,260.2 203.1,246.7 187.7,243.9 184.7,243.3 181,242.6 181,241.6 
						182.6,239.8 185.5,236.6 189.4,232.2 194.3,226.8 202.6,217.7 208.3,218.7 213.1,219.5 288.9,232.7 296,233.9 					"/>
					<polygon class="st32" points="297.6,233.2 276,258.1 181,240.6 181,239.5 202.6,215.6 297.6,232.1 					"/>
					<polygon class="st39" points="297.6,232.1 296,233.9 276.8,256.1 276,257 207.2,244.3 207,244.3 195,242.1 187.7,240.7 
						185.8,240.4 182.6,239.8 181,239.5 184.1,235.8 189.5,229.6 189.5,229.6 191.7,227.1 195.8,222.3 199.8,217.7 199.9,217.7 
						202.6,214.5 220.7,217.9 220.9,217.9 289.8,230.7 291.6,231 					"/>
					<g>
						<polygon class="st40" points="288,234.8 273.9,252 257.4,249 271.5,231.8 						"/>
						<polygon class="st41" points="268.4,231.3 254.4,248.6 237.9,245.6 251.9,228.4 						"/>
						<polygon class="st42" points="249.3,227.5 235.3,244.7 218.8,241.8 232.8,224.5 						"/>
						<polygon class="st43" points="232.8,224.6 218.8,241.8 202.3,238.8 216.3,221.6 						"/>
					</g>
					<polygon class="st38" points="291.8,230.7 291.6,231 290.9,232.7 285.2,246 260.2,245.5 209.2,244.3 207,244.3 195,242.1 
						187.7,240.7 187.8,240.4 189.1,237.5 191.4,232.2 193,228.8 193.7,227.1 195.8,222.3 197.9,217.6 199.9,217.7 201.9,217.7 
						204.6,217.7 211.9,217.8 212,217.8 220.7,217.9 222.9,217.9 					"/>
					<polygon class="st32" points="292.6,218.6 287.5,244.1 187.6,241.8 187.6,240.8 194.1,216.4 292.6,217.5 					"/>
					<polygon class="st44" points="292.6,217.5 287.5,243 187.6,240.8 194.1,215.3 					"/>
					<path class="st45" d="M193.9,226.4c0,0.9,1.2,1.6,2.8,1.6c1.5,0,2.8-0.7,2.8-1.6c0-0.9-1.2-1.6-2.8-1.6
						C195.1,224.8,193.9,225.5,193.9,226.4z"/>
					<g>
						<polygon class="st46" points="287.8,220.1 283.9,239.7 267.6,239.5 271.5,219.9 						"/>
						<polygon class="st47" points="267.2,219.7 263.3,239.4 247.1,239.2 251,219.5 						"/>
						<polygon class="st48" points="246.7,219.4 242.8,239 226.5,238.8 230.4,219.2 						"/>
						<polygon class="st49" points="226.1,219 222.2,238.7 205.9,238.5 209.9,218.8 						"/>
					</g>
					<g>
						<linearGradient id="SVGID_15_" gradientUnits="userSpaceOnUse" x1="194.8015" y1="227.2447" x2="200.3143" y2="227.2447">
							<stop  offset="0.1613" style="stop-color:#707070"/>
							<stop  offset="0.1633" style="stop-color:#939393"/>
							<stop  offset="0.5593" style="stop-color:#939393"/>
							<stop  offset="0.5622" style="stop-color:#A0A0A0"/>
							<stop  offset="0.8728" style="stop-color:#A0A0A0"/>
							<stop  offset="0.8739" style="stop-color:#919191"/>
						</linearGradient>
						<path class="st50" d="M197.5,228.4c1.5,0,2.8-0.7,2.8-1.6l0-0.7c-1.8,0.1-3.7,0.1-5.5,0.1l0,0.6
							C194.8,227.7,196,228.4,197.5,228.4z"/>
						<path class="st51" d="M194.8,226.2c0,0.9,1.2,1.6,2.8,1.6c1.5,0,2.8-0.7,2.8-1.6c0-0.9-1.2-1.6-2.8-1.6
							C196,224.7,194.8,225.4,194.8,226.2z"/>
					</g>
				</g>
			</g>
		</g>
	</g>
</g>
<g id="Capa_4" class="st0">
	<polygon class="st52" points="117.2,73.9 96.3,94.6 73.4,72.4 61.1,84.5 46.9,70.9 86,31.8 98.3,43.9 103,54.7 	"/>
	<g class="st1">
		
			<rect x="16.6" y="47.2" transform="matrix(0.7072 -0.7071 0.7071 0.7072 -32.0924 34.1481)" class="st53" width="17.2" height="17.2"/>
		
			<rect x="28.7" y="35" transform="matrix(0.7071 -0.7071 0.7071 0.7071 -19.9006 39.2072)" class="st54" width="17.2" height="17.2"/>
		
			<rect x="28.8" y="59.4" transform="matrix(0.7071 -0.7071 0.7071 0.7071 -37.1492 46.355)" class="st55" width="17.2" height="17.2"/>
		
			<rect x="41" y="71.6" transform="matrix(0.707 -0.7072 0.7072 0.707 -42.2071 58.5746)" class="st56" width="17.2" height="17.2"/>
		
			<rect x="101.9" y="35" transform="matrix(0.7071 -0.7071 0.7071 0.7071 1.5243 90.9681)" class="st57" width="17.2" height="17.2"/>
		
			<rect x="89.7" y="47.2" transform="matrix(0.7071 -0.7071 0.7071 0.7071 -10.6724 85.9064)" class="st58" width="17.2" height="17.2"/>
		
			<rect x="53.2" y="83.8" transform="matrix(0.707 -0.7072 0.7072 0.707 -47.2598 70.7716)" class="st59" width="17.2" height="17.2"/>
		
			<rect x="101.9" y="59.4" transform="matrix(0.7071 -0.7071 0.7071 0.7071 -15.7265 98.1114)" class="st60" width="17.2" height="17.2"/>
		
			<rect x="114.1" y="47.2" transform="matrix(0.7071 -0.7071 0.7071 0.7071 -3.5345 103.1617)" class="st61" width="17.2" height="17.2"/>
		
			<rect x="41" y="47.2" transform="matrix(0.7071 -0.7071 0.7071 0.7071 -24.9458 51.4121)" class="st62" width="17.2" height="17.2"/>
		
			<rect x="65.4" y="71.5" transform="matrix(0.707 -0.7072 0.7072 0.707 -34.9599 75.7871)" class="st63" width="17.2" height="17.2"/>
		
			<rect x="77.6" y="83.7" transform="matrix(0.707 -0.7072 0.7072 0.707 -40.012 87.9846)" class="st64" width="17.2" height="17.2"/>
		
			<rect x="53.2" y="35" transform="matrix(0.7072 -0.707 0.707 0.7072 -12.7746 56.4583)" class="st65" width="17.2" height="17.2"/>
		<polygon class="st66" points="110.5,31.4 98.4,43.6 86.2,31.4 		"/>
		<polygon class="st67" points="86.1,31.4 73.9,43.6 61.7,31.4 		"/>
		<polygon class="st68" points="61.7,31.4 49.6,43.6 37.4,31.4 		"/>
		
			<rect x="65.4" y="95.9" transform="matrix(0.707 -0.7072 0.7072 0.707 -52.2098 82.9336)" class="st69" width="17.2" height="17.2"/>
	</g>
</g>
</svg>
