<?xml version="1.0" encoding="utf-8"?>
<!-- Generator: Adobe Illustrator 24.0.1, SVG Export Plug-In . SVG Version: 6.00 Build 0)  -->
<svg version="1.1" xmlns="http://www.w3.org/2000/svg" xmlns:xlink="http://www.w3.org/1999/xlink" x="0px" y="0px"
	 viewBox="0 0 117.4 28.2" style="enable-background:new 0 0 117.4 28.2;" xml:space="preserve">
<style type="text/css">
	.st0{display:none;}
	.st1{display:inline;}
	.st2{fill:#FFFFFF;}
	.st3{fill:#F2E500;}
	.st4{fill:#C8D400;}
	.st5{fill:#FFCC00;}
	.st6{fill:#F39200;}
	.st7{fill:#008BC5;}
	.st8{fill:#005CA9;}
	.st9{fill:#B81178;}
	.st10{fill:#008ECF;}
	.st11{fill:#0BBBEF;}
	.st12{fill:#9B9B2F;}
	.st13{fill:#CC50A2;}
	.st14{fill:#8E557E;}
	.st15{fill:#008B32;}
	.st16{fill:#005091;}
	.st17{fill:#2A6A38;}
	.st18{fill:#76B82A;}
	.st19{fill:#8E196D;}
</style>
<g id="Capa_1" class="st0">
	<g id="logo" transform="translate(0 8.292)" class="st1">
		<path id="text" class="st2" d="M44.5,15.8h-3.5V3h3.5V15.8z M40.6-1.2c0-0.6,0.2-1.1,0.6-1.5c0.4-0.4,0.9-0.6,1.5-0.6
			c0.6,0,1.1,0.2,1.5,0.6c0.4,0.4,0.6,1,0.6,1.5c0,0.6-0.2,1.1-0.6,1.5c-0.4,0.4-0.9,0.6-1.5,0.6c-0.6,0-1.1-0.2-1.5-0.6
			C40.9-0.1,40.6-0.7,40.6-1.2z M51.6,12c0.6,0.6,1.4,1,2.3,1c0.9,0,1.7-0.3,2.3-1c0.7-0.7,1-1.7,0.9-2.7c0.1-1-0.3-2-0.9-2.7
			c-0.6-0.6-1.4-1-2.3-1c-0.9,0-1.7,0.3-2.3,1c-0.7,0.7-1,1.7-1,2.7C50.6,10.3,51,11.3,51.6,12L51.6,12z M49.1,4.5
			c1.3-1.3,3-2,4.8-1.9c1.8-0.1,3.5,0.6,4.8,1.9c1.3,1.3,2,3,1.9,4.9c0.1,1.8-0.6,3.6-1.9,4.9c-1.3,1.3-3,2-4.8,1.9
			c-1.8,0.1-3.5-0.6-4.8-1.9c-1.3-1.3-2-3.1-1.9-4.9C47.2,7.5,47.9,5.8,49.1,4.5L49.1,4.5z M62.3,12.2l3-0.7c0,0.5,0.3,1,0.7,1.4
			c0.5,0.4,1.1,0.6,1.7,0.6c0.4,0,0.9-0.1,1.2-0.4c0.3-0.2,0.4-0.6,0.4-0.9c0-0.6-0.5-1.1-1.4-1.2l-1.7-0.4c-1-0.2-2-0.7-2.7-1.4
			c-0.6-0.7-0.9-1.5-0.9-2.4c0-1.1,0.5-2.2,1.4-3c0.9-0.8,2.2-1.3,3.4-1.2c0.8,0,1.6,0.1,2.3,0.4c0.6,0.2,1.1,0.5,1.5,1
			c0.3,0.3,0.6,0.7,0.8,1.2c0.2,0.4,0.3,0.8,0.4,1.2l-2.9,0.6c-0.1-0.5-0.3-0.9-0.6-1.2c-0.4-0.4-0.9-0.6-1.5-0.5
			c-0.4,0-0.8,0.1-1.2,0.4c-0.3,0.2-0.5,0.5-0.5,0.9c0,0.6,0.4,1,1.2,1.1L68.8,8c1.1,0.2,2.1,0.7,2.8,1.4c0.6,0.7,1,1.6,1,2.5
			c0,1.1-0.5,2.2-1.3,3c-1,0.9-2.3,1.3-3.7,1.3c-0.8,0-1.6-0.1-2.4-0.4c-0.6-0.2-1.2-0.6-1.7-1c-0.4-0.4-0.7-0.8-0.9-1.3
			C62.5,13,62.4,12.6,62.3,12.2L62.3,12.2z M78.8,12c0.6,0.6,1.4,1,2.3,1c0.9,0,1.7-0.3,2.3-1c0.7-0.7,1-1.7,1-2.7
			c0.1-1-0.3-2-0.9-2.7c-0.6-0.6-1.4-1-2.3-1c-0.9,0-1.7,0.3-2.3,1c-0.7,0.7-1,1.7-1,2.7C77.8,10.3,78.1,11.3,78.8,12L78.8,12z
			 M76.3,4.5c1.3-1.3,3-2,4.8-1.9c1.8-0.1,3.5,0.6,4.8,1.9c1.3,1.3,2,3,1.9,4.9c0.1,1.8-0.6,3.6-1.9,4.9c-1.3,1.3-3,2-4.8,1.9
			c-1.8,0.1-3.5-0.6-4.8-1.9c-1.3-1.3-2-3.1-1.9-4.9C74.3,7.5,75,5.8,76.3,4.5L76.3,4.5z M93.9,12c0.6,0.6,1.4,1,2.3,1
			c0.9,0,1.7-0.3,2.3-1c0.7-0.7,1-1.7,1-2.7c0.1-1-0.3-2-0.9-2.7c-0.6-0.6-1.4-1-2.3-1c-0.9,0-1.7,0.3-2.3,1c-0.7,0.7-1,1.7-1,2.7
			C92.9,10.3,93.3,11.3,93.9,12L93.9,12z M91.4,4.5c1.3-1.3,3-2,4.8-1.9c1.8-0.1,3.5,0.6,4.8,1.9c1.3,1.3,2,3,1.9,4.9
			c0.1,1.8-0.6,3.6-1.9,4.9c-1.3,1.3-3,2-4.8,1.9c-1.8,0.1-3.5-0.6-4.8-1.9c-1.3-1.3-2-3.1-1.9-4.9C89.5,7.5,90.2,5.8,91.4,4.5
			L91.4,4.5z M109.1,8.4v7.4h-3.4V3h3.4v1.6c0.4-0.6,0.9-1.1,1.6-1.4c0.7-0.3,1.4-0.5,2.1-0.5c1.3-0.1,2.6,0.4,3.4,1.4
			c0.8,1,1.2,2.3,1.2,3.7v8.1h-3.5V8.3c0-0.7-0.2-1.3-0.6-1.8c-0.5-0.5-1.1-0.8-1.8-0.7c-0.7,0-1.3,0.3-1.7,0.8
			C109.4,7,109.1,7.7,109.1,8.4L109.1,8.4z"/>
		<g id="loading" transform="translate(0 -8.292)">
			<path id="Path_868" class="st2" d="M28.2,13.4h-5.4c-0.7,0-1.3,0.7-1.3,1.4c0,0.7,0.6,1.3,1.3,1.3h5.4c0.7,0,1.3-0.6,1.4-1.4
				C29.6,14,29,13.4,28.2,13.4z"/>
			<path id="Path_869" class="st2" d="M6.7,13.4H1.4c-0.7,0-1.4,0.6-1.4,1.3s0.6,1.4,1.3,1.4c0,0,0.1,0,0.1,0h5.4
				c0.7,0,1.4-0.6,1.4-1.3c0-0.7-0.6-1.4-1.3-1.4C6.8,13.4,6.8,13.4,6.7,13.4z"/>
			<path id="Path_870" class="st2" d="M23.3,4.3l-3.8,3.8C19,8.6,18.9,9.5,19.4,10c0.5,0.6,1.3,0.6,1.9,0.1c0,0,0.1-0.1,0.1-0.1
				l3.8-3.8c0.5-0.5,0.5-1.4,0-1.9c0,0,0,0,0,0C24.7,3.8,23.9,3.8,23.3,4.3z"/>
			<g id="Group_462" transform="translate(3.921 19.145)">
				<path id="Path_871" class="st2" d="M10.9,3.7c-0.7,0-1.3,0.6-1.4,1.4v2.7c0,0.7,0.6,1.4,1.3,1.4s1.4-0.6,1.4-1.3
					c0,0,0-0.1,0-0.1V5C12.2,4.3,11.6,3.7,10.9,3.7z"/>
				<path id="Path_872" class="st2" d="M4.2,0.4L0.4,4.2c-0.6,0.5-0.6,1.3-0.1,1.9s1.3,0.6,1.9,0.1c0,0,0.1-0.1,0.1-0.1l3.8-3.8
					c0.5-0.5,0.5-1.4,0-1.9c0,0,0,0,0,0C5.6-0.1,4.7-0.1,4.2,0.4z"/>
			</g>
			<path id="Path_873" class="st2" d="M14.8,0c-0.7,0-1.3,0.6-1.4,1.4v5.4c0,0.7,0.6,1.4,1.3,1.4c0.7,0,1.4-0.6,1.4-1.3
				c0,0,0-0.1,0-0.1V1.4C16.1,0.6,15.5,0,14.8,0z"/>
			<path id="Path_874" class="st2" d="M6.2,4.3C5.7,3.8,4.8,3.9,4.3,4.4c-0.5,0.5-0.5,1.3,0,1.8L8.1,10c0.6,0.5,1.4,0.4,1.9-0.1
				c0.5-0.5,0.5-1.3,0-1.8L6.2,4.3z"/>
		</g>
	</g>
</g>
<g id="Capa_2">
	<g>
		<rect x="1.1" y="5.9" transform="matrix(0.7072 -0.7071 0.7071 0.7072 -4.9036 5.111)" class="st3" width="5.2" height="5.2"/>
		<rect x="4.8" y="2.2" transform="matrix(0.7071 -0.7071 0.7071 0.7071 -1.2062 6.644)" class="st4" width="5.2" height="5.2"/>
		<rect x="4.8" y="9.6" transform="matrix(0.7071 -0.7071 0.7071 0.7071 -6.4368 8.8119)" class="st5" width="5.2" height="5.2"/>
		<rect x="8.5" y="13.3" transform="matrix(0.707 -0.7072 0.7072 0.707 -7.97 12.5157)" class="st6" width="5.2" height="5.2"/>
		<rect x="27" y="2.2" transform="matrix(0.7071 -0.7071 0.7071 0.7071 5.2906 22.34)" class="st7" width="5.2" height="5.2"/>
		<rect x="23.3" y="5.9" transform="matrix(0.7071 -0.7071 0.7071 0.7071 1.5917 20.806)" class="st8" width="5.2" height="5.2"/>
		<rect x="12.2" y="16.9" transform="matrix(0.707 -0.7072 0.7072 0.707 -9.4713 16.204)" class="st9" width="5.2" height="5.2"/>
		
			<rect x="27" y="9.6" transform="matrix(0.7071 -0.7071 0.7071 0.7071 5.925632e-02 24.5068)" class="st10" width="5.2" height="5.2"/>
		<rect x="30.7" y="5.9" transform="matrix(0.7071 -0.7071 0.7071 0.7071 3.7563 26.0383)" class="st11" width="5.2" height="5.2"/>
		<rect x="8.5" y="5.9" transform="matrix(0.7071 -0.7071 0.7071 0.7071 -2.7361 10.345)" class="st12" width="5.2" height="5.2"/>
		<rect x="15.9" y="13.2" transform="matrix(0.707 -0.7072 0.7072 0.707 -5.7726 17.736)" class="st13" width="5.2" height="5.2"/>
		<rect x="19.6" y="16.9" transform="matrix(0.707 -0.7072 0.7072 0.707 -7.3046 21.4347)" class="st14" width="5.2" height="5.2"/>
		<rect x="12.2" y="2.2" transform="matrix(0.7072 -0.707 0.707 0.7072 0.954 11.8769)" class="st15" width="5.2" height="5.2"/>
		<polygon class="st16" points="29.6,1.1 25.9,4.8 22.2,1.1 		"/>
		<polygon class="st17" points="22.2,1.1 18.5,4.8 14.8,1.1 		"/>
		<polygon class="st18" points="14.8,1.1 11.1,4.8 7.4,1.1 		"/>
		
			<rect x="15.9" y="20.6" transform="matrix(0.707 -0.7072 0.7072 0.707 -11.0035 19.9031)" class="st19" width="5.2" height="5.2"/>
	</g>
	<g>
		<path class="st2" d="M40.9,6.7h-3.3v-3h10.5v3h-3.3v8.4h-3.8V6.7z"/>
		<path class="st2" d="M51.6,14.6c-1-0.5-1.7-1.2-2.3-2.1c-0.6-0.9-0.8-1.9-0.8-3.1s0.3-2.2,0.8-3.1c0.6-0.9,1.3-1.6,2.3-2.1
			c1-0.5,2.1-0.8,3.3-0.8c1.2,0,2.3,0.3,3.3,0.8c1,0.5,1.7,1.2,2.3,2.1c0.6,0.9,0.8,1.9,0.8,3.1s-0.3,2.2-0.8,3.1
			c-0.6,0.9-1.3,1.6-2.3,2.1c-1,0.5-2.1,0.8-3.3,0.8C53.7,15.4,52.6,15.1,51.6,14.6z M56.2,11.9c0.4-0.2,0.7-0.6,0.9-1
			c0.2-0.4,0.3-0.9,0.3-1.5c0-0.6-0.1-1.1-0.3-1.5c-0.2-0.4-0.5-0.8-0.9-1c-0.4-0.2-0.8-0.4-1.3-0.4c-0.5,0-0.9,0.1-1.3,0.4
			c-0.4,0.2-0.7,0.6-0.9,1c-0.2,0.4-0.3,0.9-0.3,1.5c0,0.6,0.1,1.1,0.3,1.5c0.2,0.4,0.5,0.8,0.9,1c0.4,0.2,0.8,0.4,1.3,0.4
			C55.4,12.3,55.8,12.2,56.2,11.9z"/>
		<path class="st2" d="M71,4.2c0.8,0.3,1.4,0.8,1.8,1.5c0.4,0.7,0.6,1.4,0.6,2.3c0,0.9-0.2,1.6-0.6,2.3c-0.4,0.7-1,1.2-1.8,1.5
			c-0.8,0.3-1.7,0.5-2.8,0.5h-1.6v2.8h-3.8V3.7h5.5C69.3,3.7,70.2,3.9,71,4.2z M69.2,9c0.3-0.2,0.4-0.6,0.4-1c0-0.4-0.1-0.8-0.4-1
			c-0.3-0.2-0.7-0.4-1.2-0.4h-1.4v2.7H68C68.5,9.4,68.9,9.2,69.2,9z"/>
		<path class="st2" d="M81.9,13.1h-4.3l-0.8,2h-3.9l5-11.4h3.8l5,11.4h-4L81.9,13.1z M80.8,10.4l-1.1-2.9l-1.1,2.9H80.8z"/>
		<path class="st2" d="M89.7,14.6c-1-0.5-1.7-1.2-2.3-2.1c-0.5-0.9-0.8-1.9-0.8-3.1c0-1.2,0.3-2.2,0.8-3.1c0.5-0.9,1.3-1.6,2.3-2.1
			c1-0.5,2.1-0.8,3.3-0.8c1.1,0,2.1,0.2,3,0.6c0.9,0.4,1.6,1,2.2,1.7l-2.4,2.2C95,7,94.1,6.6,93.2,6.6c-0.8,0-1.5,0.3-1.9,0.8
			c-0.5,0.5-0.7,1.2-0.7,2.1c0,0.9,0.2,1.6,0.7,2.1c0.5,0.5,1.1,0.8,1.9,0.8c1,0,1.8-0.4,2.5-1.3l2.4,2.2c-0.6,0.7-1.3,1.3-2.2,1.7
			c-0.9,0.4-1.9,0.6-3,0.6C91.8,15.4,90.7,15.1,89.7,14.6z"/>
		<path class="st2" d="M99.2,3.7h3.8v11.4h-3.8V3.7z"/>
		<path class="st2" d="M107.6,14.6c-1-0.5-1.7-1.2-2.3-2.1c-0.6-0.9-0.8-1.9-0.8-3.1s0.3-2.2,0.8-3.1c0.6-0.9,1.3-1.6,2.3-2.1
			c1-0.5,2.1-0.8,3.3-0.8c1.2,0,2.3,0.3,3.3,0.8c1,0.5,1.7,1.2,2.3,2.1c0.6,0.9,0.8,1.9,0.8,3.1s-0.3,2.2-0.8,3.1
			c-0.6,0.9-1.3,1.6-2.3,2.1c-1,0.5-2.1,0.8-3.3,0.8C109.7,15.4,108.6,15.1,107.6,14.6z M112.2,11.9c0.4-0.2,0.7-0.6,0.9-1
			c0.2-0.4,0.3-0.9,0.3-1.5c0-0.6-0.1-1.1-0.3-1.5c-0.2-0.4-0.5-0.8-0.9-1c-0.4-0.2-0.8-0.4-1.3-0.4c-0.5,0-0.9,0.1-1.3,0.4
			c-0.4,0.2-0.7,0.6-0.9,1c-0.2,0.4-0.3,0.9-0.3,1.5c0,0.6,0.1,1.1,0.3,1.5c0.2,0.4,0.5,0.8,0.9,1c0.4,0.2,0.8,0.4,1.3,0.4
			C111.4,12.3,111.8,12.2,112.2,11.9z"/>
	</g>
	<g>
		<path class="st2" d="M42,19.3v4.1h-0.1v-3.8L40,22.8H40l-1.8-3.2v3.8H38v-4.1h0.1l1.9,3.3L42,19.3L42,19.3z"/>
		<path class="st2" d="M45.5,20.6c0.2,0.2,0.3,0.4,0.3,0.8v2h-0.1v-0.6c-0.1,0.2-0.2,0.4-0.4,0.5c-0.2,0.1-0.4,0.2-0.7,0.2
			c-0.3,0-0.6-0.1-0.8-0.2c-0.2-0.2-0.3-0.4-0.3-0.6c0-0.2,0.1-0.4,0.3-0.6c0.2-0.1,0.4-0.2,0.8-0.2h1.1v-0.3
			C45.6,21.1,45.6,20.8,45.5,20.6c-0.2-0.1-0.5-0.2-0.8-0.2c-0.2,0-0.4,0-0.6,0.1c-0.2,0.1-0.3,0.2-0.5,0.3l-0.1-0.1
			c0.1-0.1,0.3-0.2,0.5-0.3c0.2-0.1,0.4-0.1,0.6-0.1C45,20.3,45.3,20.4,45.5,20.6z M45.6,22.5v-0.7h-1.1c-0.3,0-0.6,0.1-0.7,0.2
			c-0.2,0.1-0.2,0.3-0.2,0.5c0,0.2,0.1,0.4,0.2,0.5c0.2,0.1,0.4,0.2,0.7,0.2C45.1,23.2,45.4,23,45.6,22.5z"/>
		<path class="st2" d="M47.3,19.5c0,0,0-0.1,0-0.1c0,0,0-0.1,0-0.1c0,0,0.1,0,0.1,0c0,0,0.1,0,0.1,0c0,0,0,0.1,0,0.1
			c0,0,0,0.1,0,0.1c0,0-0.1,0-0.1,0C47.3,19.5,47.3,19.5,47.3,19.5z M47.3,20.3h0.1v3h-0.1V20.3z"/>
		<path class="st2" d="M51.3,20.6c0.2,0.2,0.3,0.5,0.3,0.9v1.8h-0.1v-1.8C51.5,21.2,51.4,20.9,51.3,20.6c-0.3-0.1-0.5-0.2-0.9-0.2
			c-0.4,0-0.7,0.1-0.9,0.4c-0.2,0.2-0.3,0.5-0.3,0.9v1.6h-0.1v-3h0.1v0.8c0.1-0.3,0.2-0.5,0.5-0.6c0.2-0.1,0.5-0.2,0.8-0.2
			C50.8,20.3,51.1,20.4,51.3,20.6z"/>
		<path class="st2" d="M54.6,23.1c-0.1,0.1-0.2,0.1-0.3,0.2c-0.1,0-0.2,0.1-0.3,0.1c-0.2,0-0.4-0.1-0.5-0.2
			c-0.1-0.1-0.2-0.3-0.2-0.5v-2.2h-0.6v-0.1h0.6v-0.7h0.1v0.7h1v0.1h-1v2.1c0,0.2,0.1,0.4,0.2,0.5c0.1,0.1,0.3,0.2,0.5,0.2
			C54.2,23.2,54.4,23.2,54.6,23.1L54.6,23.1z"/>
		<path class="st2" d="M58,21.8h-2.7c0,0.3,0.1,0.5,0.2,0.7c0.1,0.2,0.3,0.4,0.5,0.5c0.2,0.1,0.4,0.2,0.7,0.2c0.2,0,0.4,0,0.6-0.1
			c0.2-0.1,0.3-0.2,0.4-0.3l0.1,0.1c-0.1,0.2-0.3,0.3-0.5,0.4c-0.2,0.1-0.4,0.1-0.6,0.1c-0.3,0-0.5-0.1-0.8-0.2
			c-0.2-0.1-0.4-0.3-0.5-0.5c-0.1-0.2-0.2-0.5-0.2-0.8c0-0.3,0.1-0.5,0.2-0.8c0.1-0.2,0.3-0.4,0.5-0.5c0.2-0.1,0.4-0.2,0.7-0.2
			c0.3,0,0.5,0.1,0.7,0.2c0.2,0.1,0.4,0.3,0.5,0.5C58,21.3,58,21.5,58,21.8L58,21.8z M56,20.6c-0.2,0.1-0.3,0.3-0.5,0.5
			c-0.1,0.2-0.2,0.4-0.2,0.7h2.6c0-0.2-0.1-0.5-0.2-0.7c-0.1-0.2-0.3-0.4-0.5-0.5c-0.2-0.1-0.4-0.2-0.6-0.2S56.2,20.5,56,20.6z"/>
		<path class="st2" d="M61.6,20.6c0.2,0.2,0.3,0.5,0.3,0.9v1.8h-0.1v-1.8C61.8,21.2,61.7,20.9,61.6,20.6c-0.3-0.1-0.5-0.2-0.9-0.2
			c-0.4,0-0.7,0.1-0.9,0.4c-0.2,0.2-0.3,0.5-0.3,0.9v1.6h-0.1v-3h0.1v0.8c0.1-0.3,0.2-0.5,0.5-0.6c0.2-0.1,0.5-0.2,0.8-0.2
			C61,20.3,61.3,20.4,61.6,20.6z"/>
		<path class="st2" d="M65.2,20.6c0.2,0.2,0.3,0.4,0.3,0.8v2h-0.1v-0.6c-0.1,0.2-0.2,0.4-0.4,0.5c-0.2,0.1-0.4,0.2-0.7,0.2
			c-0.3,0-0.6-0.1-0.8-0.2c-0.2-0.2-0.3-0.4-0.3-0.6c0-0.2,0.1-0.4,0.3-0.6c0.2-0.1,0.4-0.2,0.8-0.2h1.1v-0.3
			C65.4,21.1,65.3,20.8,65.2,20.6c-0.2-0.1-0.5-0.2-0.8-0.2c-0.2,0-0.4,0-0.6,0.1c-0.2,0.1-0.3,0.2-0.5,0.3l-0.1-0.1
			c0.1-0.1,0.3-0.2,0.5-0.3c0.2-0.1,0.4-0.1,0.6-0.1C64.8,20.3,65,20.4,65.2,20.6z M65.4,22.5v-0.7h-1.1c-0.3,0-0.6,0.1-0.7,0.2
			c-0.2,0.1-0.2,0.3-0.2,0.5c0,0.2,0.1,0.4,0.2,0.5c0.2,0.1,0.4,0.2,0.7,0.2C64.8,23.2,65.2,23,65.4,22.5z"/>
		<path class="st2" d="M69.3,20.6c0.2,0.2,0.3,0.5,0.3,0.9v1.8h-0.1v-1.8C69.5,21.2,69.4,20.9,69.3,20.6c-0.3-0.1-0.5-0.2-0.9-0.2
			c-0.4,0-0.7,0.1-0.9,0.4c-0.2,0.2-0.3,0.5-0.3,0.9v1.6h-0.1v-3h0.1v0.8c0.1-0.3,0.2-0.5,0.5-0.6c0.2-0.1,0.5-0.2,0.8-0.2
			C68.8,20.3,69.1,20.4,69.3,20.6z"/>
		<path class="st2" d="M71.6,23.2c-0.2-0.1-0.4-0.3-0.5-0.5c-0.1-0.2-0.2-0.5-0.2-0.8c0-0.3,0.1-0.6,0.2-0.8
			c0.1-0.2,0.3-0.4,0.5-0.5c0.2-0.1,0.5-0.2,0.8-0.2c0.2,0,0.4,0,0.6,0.1c0.2,0.1,0.3,0.2,0.5,0.4l-0.1,0.1
			c-0.1-0.2-0.3-0.3-0.4-0.3c-0.2-0.1-0.4-0.1-0.6-0.1c-0.3,0-0.5,0.1-0.7,0.2c-0.2,0.1-0.4,0.3-0.5,0.5S71,21.6,71,21.8
			c0,0.3,0.1,0.5,0.2,0.7C71.3,22.8,71.4,22.9,71.6,23.2c0.3,0,0.5,0.1,0.8,0.1c0.2,0,0.4,0,0.6-0.1c0.2-0.1,0.3-0.2,0.4-0.3
			l0.1,0.1c-0.1,0.2-0.3,0.3-0.5,0.4c-0.2,0.1-0.4,0.1-0.6,0.1C72,23.4,71.8,23.3,71.6,23.2z"/>
		<path class="st2" d="M77,21.8h-2.7c0,0.3,0.1,0.5,0.2,0.7c0.1,0.2,0.3,0.4,0.5,0.5s0.4,0.2,0.7,0.2c0.2,0,0.4,0,0.6-0.1
			c0.2-0.1,0.3-0.2,0.4-0.3l0.1,0.1c-0.1,0.2-0.3,0.3-0.5,0.4c-0.2,0.1-0.4,0.1-0.6,0.1c-0.3,0-0.5-0.1-0.8-0.2
			c-0.2-0.1-0.4-0.3-0.5-0.5c-0.1-0.2-0.2-0.5-0.2-0.8c0-0.3,0.1-0.5,0.2-0.8c0.1-0.2,0.3-0.4,0.5-0.5c0.2-0.1,0.4-0.2,0.7-0.2
			c0.3,0,0.5,0.1,0.7,0.2c0.2,0.1,0.4,0.3,0.5,0.5C76.9,21.3,77,21.5,77,21.8L77,21.8z M75,20.6c-0.2,0.1-0.3,0.3-0.5,0.5
			c-0.1,0.2-0.2,0.4-0.2,0.7h2.6c0-0.2-0.1-0.5-0.2-0.7c-0.1-0.2-0.3-0.4-0.5-0.5c-0.2-0.1-0.4-0.2-0.6-0.2
			C75.4,20.4,75.2,20.5,75,20.6z"/>
		<path class="st2" d="M80.3,23.2c-0.3-0.1-0.5-0.2-0.6-0.4l0.1-0.1c0.1,0.2,0.3,0.3,0.6,0.4c0.2,0.1,0.5,0.2,0.8,0.2
			c0.4,0,0.7-0.1,1-0.3c0.2-0.2,0.3-0.4,0.3-0.7c0-0.2-0.1-0.4-0.2-0.5c-0.1-0.1-0.3-0.2-0.4-0.3c-0.2-0.1-0.4-0.1-0.7-0.2
			c-0.3-0.1-0.5-0.1-0.7-0.2c-0.2-0.1-0.3-0.2-0.4-0.3c-0.1-0.1-0.2-0.3-0.2-0.6c0-0.2,0-0.4,0.1-0.5c0.1-0.2,0.2-0.3,0.5-0.4
			c0.2-0.1,0.5-0.1,0.8-0.1c0.2,0,0.4,0,0.6,0.1c0.2,0.1,0.4,0.2,0.5,0.3l-0.1,0.1c-0.2-0.1-0.3-0.2-0.5-0.3
			c-0.2-0.1-0.4-0.1-0.6-0.1c-0.4,0-0.7,0.1-0.9,0.3c-0.2,0.2-0.3,0.4-0.3,0.7c0,0.2,0.1,0.4,0.2,0.5c0.1,0.1,0.3,0.2,0.4,0.3
			c0.2,0.1,0.4,0.1,0.7,0.2c0.3,0.1,0.5,0.1,0.7,0.2c0.2,0.1,0.3,0.2,0.4,0.3c0.1,0.1,0.2,0.3,0.2,0.6c0,0.2-0.1,0.4-0.2,0.5
			c-0.1,0.2-0.3,0.3-0.5,0.4c-0.2,0.1-0.5,0.1-0.8,0.1C80.8,23.4,80.5,23.3,80.3,23.2z"/>
		<path class="st2" d="M86.2,21.8h-2.7c0,0.3,0.1,0.5,0.2,0.7c0.1,0.2,0.3,0.4,0.5,0.5c0.2,0.1,0.4,0.2,0.7,0.2c0.2,0,0.4,0,0.6-0.1
			c0.2-0.1,0.3-0.2,0.4-0.3l0.1,0.1c-0.1,0.2-0.3,0.3-0.5,0.4c-0.2,0.1-0.4,0.1-0.6,0.1c-0.3,0-0.5-0.1-0.8-0.2
			c-0.2-0.1-0.4-0.3-0.5-0.5c-0.1-0.2-0.2-0.5-0.2-0.8c0-0.3,0.1-0.5,0.2-0.8c0.1-0.2,0.3-0.4,0.5-0.5c0.2-0.1,0.4-0.2,0.7-0.2
			c0.3,0,0.5,0.1,0.7,0.2c0.2,0.1,0.4,0.3,0.5,0.5C86.1,21.3,86.2,21.5,86.2,21.8L86.2,21.8z M84.2,20.6c-0.2,0.1-0.3,0.3-0.5,0.5
			c-0.1,0.2-0.2,0.4-0.2,0.7h2.6c0-0.2-0.1-0.5-0.2-0.7c-0.1-0.2-0.3-0.4-0.5-0.5c-0.2-0.1-0.4-0.2-0.6-0.2
			C84.6,20.4,84.3,20.5,84.2,20.6z"/>
		<path class="st2" d="M88,20.5c0.2-0.1,0.5-0.2,0.7-0.2v0.1h0c-0.4,0-0.6,0.1-0.8,0.3c-0.2,0.2-0.3,0.5-0.3,0.9v1.6h-0.1v-3h0.1
			v0.8C87.6,20.9,87.8,20.7,88,20.5z"/>
		<path class="st2" d="M92.3,20.3l-1.4,3h-0.1l-1.4-3h0.1l1.3,2.9l1.3-2.9H92.3z"/>
		<path class="st2" d="M93.2,19.5c0,0,0-0.1,0-0.1c0,0,0-0.1,0-0.1c0,0,0.1,0,0.1,0c0,0,0.1,0,0.1,0c0,0,0,0.1,0,0.1
			c0,0,0,0.1,0,0.1c0,0-0.1,0-0.1,0C93.3,19.5,93.2,19.5,93.2,19.5z M93.2,20.3h0.1v3h-0.1V20.3z"/>
		<path class="st2" d="M95.3,23.2c-0.2-0.1-0.4-0.3-0.5-0.5c-0.1-0.2-0.2-0.5-0.2-0.8c0-0.3,0.1-0.6,0.2-0.8
			c0.1-0.2,0.3-0.4,0.5-0.5c0.2-0.1,0.5-0.2,0.8-0.2c0.2,0,0.4,0,0.6,0.1c0.2,0.1,0.3,0.2,0.5,0.4l-0.1,0.1
			c-0.1-0.2-0.3-0.3-0.4-0.3c-0.2-0.1-0.4-0.1-0.6-0.1c-0.3,0-0.5,0.1-0.7,0.2c-0.2,0.1-0.4,0.3-0.5,0.5s-0.2,0.5-0.2,0.7
			c0,0.3,0.1,0.5,0.2,0.7C95,22.8,95.2,22.9,95.3,23.2c0.3,0,0.5,0.1,0.8,0.1c0.2,0,0.4,0,0.6-0.1c0.2-0.1,0.3-0.2,0.4-0.3l0.1,0.1
			c-0.1,0.2-0.3,0.3-0.5,0.4c-0.2,0.1-0.4,0.1-0.6,0.1C95.8,23.4,95.6,23.3,95.3,23.2z"/>
		<path class="st2" d="M100.8,21.8h-2.7c0,0.3,0.1,0.5,0.2,0.7c0.1,0.2,0.3,0.4,0.5,0.5s0.4,0.2,0.7,0.2c0.2,0,0.4,0,0.6-0.1
			c0.2-0.1,0.3-0.2,0.4-0.3l0.1,0.1c-0.1,0.2-0.3,0.3-0.5,0.4c-0.2,0.1-0.4,0.1-0.6,0.1c-0.3,0-0.5-0.1-0.8-0.2
			c-0.2-0.1-0.4-0.3-0.5-0.5c-0.1-0.2-0.2-0.5-0.2-0.8c0-0.3,0.1-0.5,0.2-0.8c0.1-0.2,0.3-0.4,0.5-0.5c0.2-0.1,0.4-0.2,0.7-0.2
			c0.3,0,0.5,0.1,0.7,0.2c0.2,0.1,0.4,0.3,0.5,0.5C100.7,21.3,100.8,21.5,100.8,21.8L100.8,21.8z M98.7,20.6
			c-0.2,0.1-0.3,0.3-0.5,0.5c-0.1,0.2-0.2,0.4-0.2,0.7h2.6c0-0.2-0.1-0.5-0.2-0.7c-0.1-0.2-0.3-0.4-0.5-0.5
			c-0.2-0.1-0.4-0.2-0.6-0.2C99.1,20.4,98.9,20.5,98.7,20.6z"/>
		<path class="st2" d="M102,23.2c-0.2-0.1-0.4-0.2-0.5-0.3l0.1-0.1c0.1,0.1,0.3,0.2,0.5,0.3c0.2,0.1,0.4,0.1,0.6,0.1
			c0.3,0,0.6-0.1,0.8-0.2c0.2-0.1,0.2-0.3,0.2-0.5c0-0.2,0-0.3-0.1-0.4c-0.1-0.1-0.2-0.2-0.3-0.2c-0.1,0-0.3-0.1-0.5-0.1
			c-0.2,0-0.4-0.1-0.6-0.1c-0.1,0-0.3-0.1-0.4-0.2c-0.1-0.1-0.1-0.3-0.1-0.4c0-0.2,0.1-0.4,0.3-0.5c0.2-0.1,0.4-0.2,0.8-0.2
			c0.2,0,0.4,0,0.6,0.1c0.2,0.1,0.3,0.1,0.4,0.2l-0.1,0.1c-0.1-0.1-0.3-0.2-0.4-0.2c-0.2-0.1-0.3-0.1-0.5-0.1
			c-0.3,0-0.5,0.1-0.7,0.2c-0.2,0.1-0.2,0.3-0.2,0.5c0,0.2,0,0.3,0.1,0.4c0.1,0.1,0.2,0.2,0.3,0.2c0.1,0,0.3,0.1,0.5,0.1
			c0.2,0,0.4,0.1,0.6,0.1c0.1,0,0.3,0.1,0.4,0.2c0.1,0.1,0.1,0.2,0.1,0.4c0,0.2-0.1,0.4-0.3,0.6c-0.2,0.1-0.5,0.2-0.8,0.2
			C102.5,23.4,102.3,23.3,102,23.2z"/>
		<path class="st2" d="M106.8,19.3h0.1v3.9h2.4v0.1h-2.5V19.3z"/>
		<path class="st2" d="M110.5,19.3h0.1v3.9h2.4v0.1h-2.5V19.3z"/>
		<path class="st2" d="M114.6,23.1c-0.3-0.2-0.6-0.4-0.7-0.7c-0.2-0.3-0.3-0.7-0.3-1s0.1-0.7,0.3-1c0.2-0.3,0.4-0.6,0.7-0.7
			c0.3-0.2,0.7-0.3,1.1-0.3c0.3,0,0.5,0,0.8,0.1c0.2,0.1,0.4,0.2,0.6,0.4l-0.1,0.1c-0.3-0.3-0.8-0.5-1.3-0.5c-0.4,0-0.7,0.1-1,0.3
			c-0.3,0.2-0.5,0.4-0.7,0.7c-0.2,0.3-0.3,0.6-0.3,1c0,0.4,0.1,0.7,0.3,1C114.1,22.6,114.4,22.8,114.6,23.1c0.4,0.1,0.7,0.2,1.1,0.2
			c0.5,0,1-0.2,1.3-0.5l0.1,0.1c-0.2,0.2-0.4,0.3-0.6,0.4c-0.2,0.1-0.5,0.1-0.8,0.1C115.3,23.4,114.9,23.3,114.6,23.1z"/>
	</g>
</g>
</svg>
